Coordinates
version=1
nRows=17
nColumns=24
inDegrees=yes

Units are S.I. units (second, meters, Newtons, ...)
Angles are in degrees.

endheader
time	pelvis_tilt	pelvis_list	pelvis_rotation	pelvis_tx	pelvis_ty	pelvis_tz	hip_flexion_r	hip_adduction_r	hip_rotation_r	knee_angle_r	ankle_angle_r	subtalar_angle_r	mtp_angle_r	hip_flexion_l	hip_adduction_l	hip_rotation_l	knee_angle_l	ankle_angle_l	subtalar_angle_l	mtp_angle_l	lumbar_extension	lumbar_bending	lumbar_rotation
      2.80000000	     63.01599472	      2.50666520	     -3.54186870	      0.55604855	      0.99584337	     -0.28697093	      6.03329412	    -18.20089144	     16.32710175	   -105.58145205	    -30.73932439	     16.61062917	   -245.38912606	     -4.35936434	     -7.48875567	     -0.18346732	    -68.91627387	     -0.97926938	      9.66358525	    -27.68960937	      0.00000000	      0.00000000	      0.00000000
      2.81000000	     62.77478399	      2.53257976	     -3.58340024	      0.55600674	      0.99598868	     -0.28697377	      5.81009770	    -18.15980965	     16.16099413	   -103.01149124	    -30.79295308	     16.01064657	   -245.90421035	     -4.17015424	     -7.43388556	     -0.38895096	    -68.65949406	     -0.99765005	      9.69111552	    -27.52166629	      0.00000000	      0.00000000	      0.00000000
      2.82000000	     62.55276947	      2.56839064	     -3.61088791	      0.55599775	      0.99621770	     -0.28708233	      5.36908589	    -18.08968873	     16.01245948	   -100.10009503	    -31.10726355	     15.64603564	   -245.87227684	     -3.99191933	     -7.39083829	     -0.61319431	    -68.38392094	     -1.05305700	      9.71366957	    -27.50929127	      0.00000000	      0.00000000	      0.00000000
      2.83000000	     62.35289365	      2.61094014	     -3.62053982	      0.55601820	      0.99640261	     -0.28728074	      4.72872236	    -17.98402633	     15.86943581	    -96.89742523	    -31.63182467	     15.46075665	   -245.62284957	     -3.84179811	     -7.36133980	     -0.84570734	    -68.09276450	     -1.15193702	      9.72990512	    -27.68382198	      0.00000000	      0.00000000	      0.00000000
      2.84000000	     62.17251387	      2.65850477	     -3.61230502	      0.55611899	      0.99652526	     -0.28746396	      3.91951321	    -17.84417054	     15.72396072	    -93.44983630	    -32.29244927	     15.38390967	   -245.43059227	     -3.72823125	     -7.33991187	     -1.07485828	    -67.76719575	     -1.29199293	      9.73866275	    -28.04713150	      0.00000000	      0.00000000	      0.00000000
      2.85000000	     62.00577148	      2.71184764	     -3.58990722	      0.55631385	      0.99667671	     -0.28760851	      2.97623393	    -17.67810159	     15.58076047	    -89.79090531	    -33.00163981	     15.34907610	   -245.50499835	     -3.64705922	     -7.31924809	     -1.29158836	    -67.38605098	     -1.46311950	      9.73780643	    -28.57229146	      0.00000000	      0.00000000	      0.00000000
      2.86000000	     61.84518642	      2.77324210	     -3.56090021	      0.55660266	      0.99696206	     -0.28779918	      1.93443467	    -17.49818120	     15.45840279	    -85.94530723	    -33.66471716	     15.30744151	   -245.98564473	     -3.58391428	     -7.29499210	     -1.49074504	    -66.94106017	     -1.64955399	      9.72371818	    -29.20823475	      0.00000000	      0.00000000	      0.00000000
      2.87000000	     61.68201450	      2.84356080	     -3.53329549	      0.55699151	      0.99734712	     -0.28808006	      0.83245181	    -17.31742982	     15.38376249	    -81.94414975	    -34.18447221	     15.23289318	   -246.94217522	     -3.52374858	     -7.26614924	     -1.67051472	    -66.44182329	     -1.83308410	      9.69201952	    -29.88768013	      0.00000000	      0.00000000	      0.00000000
      2.88000000	     61.50736453	      2.92077219	     -3.50983968	      0.55741285	      0.99759990	     -0.28833413	     -0.28305239	    -17.14291715	     15.38177258	    -77.84525836	    -34.46800508	     15.11978560	   -248.37830700	     -3.46300561	     -7.23095944	     -1.83138770	    -65.91081314	     -1.99699840	      9.63935449	    -30.53737708	      0.00000000	      0.00000000	      0.00000000
      2.89000000	     61.32055349	      3.00384879	     -3.48573441	      0.55778491	      0.99753479	     -0.28842237	     -1.35292267	    -16.96860246	     15.46495382	    -73.74613206	    -34.43837502	     14.97613708	   -250.23936732	     -3.41284163	     -7.18377062	     -1.97434930	    -65.37127625	     -2.12971203	      9.56532251	    -31.08931110	      0.00000000	      0.00000000	      0.00000000
      2.90000000	     61.13681564	      3.09718744	     -3.45261691	      0.55823349	      0.99737882	     -0.28844501	     -2.31318025	    -16.77701876	     15.63013575	    -69.77983060	    -34.05097025	     14.81585153	   -252.42309372	     -3.38873370	     -7.11750654	     -2.09805258	    -64.83459834	     -2.22681336	      9.47361671	    -31.49111539	      0.00000000	      0.00000000	      0.00000000
      2.91000000	     60.97356074	      3.20457585	     -3.40511732	      0.55899922	      0.99757614	     -0.28864971	     -3.12076673	    -16.55725639	     15.86613142	    -66.09230010	    -33.31092046	     14.65292975	   -254.79355601	     -3.39778573	     -7.02942300	     -2.19694829	    -64.29631611	     -2.29098244	      9.37185528	    -31.71384783	      0.00000000	      0.00000000	      0.00000000
      2.92000000	     60.82882943	      3.31916627	     -3.34448499	      0.56000458	      0.99814628	     -0.28903195	     -3.77163971	    -16.32364054	     16.16270749	    -62.80420433	    -32.28473384	     14.49900017	   -257.19782238	     -3.43753404	     -6.92430466	     -2.26264083	    -63.74421298	     -2.33052073	      9.27022712	    -31.75567260	      0.00000000	      0.00000000	      0.00000000
      2.93000000	     60.69437749	      3.43063654	     -3.27718416	      0.56080514	      0.99867788	     -0.28931453	     -4.27352893	    -16.10521537	     16.50555536	    -59.96708075	    -31.09845046	     14.36390657	   -259.48429517	     -3.50768718	     -6.81078720	     -2.28900381	    -63.17199700	     -2.35755629	      9.17947620	    -31.64076990	      0.00000000	      0.00000000	      0.00000000
      2.94000000	     60.59394029	      3.54390898	     -3.21103247	      0.56118515	      0.99894841	     -0.28935635	     -4.59642673	    -15.91226870	     16.86269102	    -57.53986466	    -29.91753581	     14.25796833	   -261.52064970	     -3.62186331	     -6.69331462	     -2.27793860	    -62.58708165	     -2.38584091	      9.10859754	    -31.41374007	      0.00000000	      0.00000000	      0.00000000
      2.95000000	     60.58113885	      3.67731003	     -3.15446397	      0.56145435	      0.99908964	     -0.28928863	     -4.67665903	    -15.72488534	     17.18636750	    -55.41700562	    -28.91113872	     14.19408297	   -263.20856062	     -3.80294264	     -6.56928342	     -2.23962339	    -62.00548986	     -2.42765165	      9.06247305	    -31.13068872	      0.00000000	      0.00000000	      0.00000000
      2.96000000	     60.68483403	      3.83612107	     -3.11869389	      0.56192438	      0.99921196	     -0.28924955	     -4.48564761	    -15.51842472	     17.43632563	    -53.49812849	    -28.21229412	     14.18843190	   -264.49272838	     -4.06226021	     -6.43533283	     -2.18580937	    -61.43870520	     -2.49046368	      9.04010129	    -30.84895570	      0.00000000	      0.00000000	      0.00000000
